<svg width="24" height="25" viewBox="0 0 24 25" fill="none" xmlns="http://www.w3.org/2000/svg">
<path fill-rule="evenodd" clip-rule="evenodd" d="M8 7.22205C8 6.16118 8.42143 5.14376 9.17157 4.39362C9.92172 3.64347 10.9391 3.22205 12 3.22205C13.0609 3.22205 14.0783 3.64347 14.8284 4.39362C15.5786 5.14376 16 6.16118 16 7.22205C16 8.28291 15.5786 9.30033 14.8284 10.0505C14.0783 10.8006 13.0609 11.222 12 11.222C10.9391 11.222 9.92172 10.8006 9.17157 10.0505C8.42143 9.30033 8 8.28291 8 7.22205ZM8 13.222C6.67392 13.222 5.40215 13.7488 4.46447 14.6865C3.52678 15.6242 3 16.896 3 18.222C3 19.0177 3.31607 19.7808 3.87868 20.3434C4.44129 20.906 5.20435 21.222 6 21.222H18C18.7956 21.222 19.5587 20.906 20.1213 20.3434C20.6839 19.7808 21 19.0177 21 18.222C21 16.896 20.4732 15.6242 19.5355 14.6865C18.5979 13.7488 17.3261 13.222 16 13.222H8Z" fill="#3357B4"/>
</svg>
