<svg width="24" height="25" viewBox="0 0 24 25" fill="none" xmlns="http://www.w3.org/2000/svg">
<path d="M19.8999 13.1111C19.7396 12.9286 19.6512 12.694 19.6512 12.4511C19.6512 12.2082 19.7396 11.9736 19.8999 11.7911L21.1799 10.3511C21.3209 10.1937 21.4085 9.99577 21.4301 9.78557C21.4516 9.57538 21.4061 9.36375 21.2999 9.18107L19.2999 5.72107C19.1948 5.53859 19.0348 5.39394 18.8426 5.30775C18.6505 5.22156 18.4361 5.19823 18.2299 5.24107L16.3499 5.62107C16.1107 5.6705 15.8616 5.63066 15.6498 5.50907C15.4379 5.38748 15.2779 5.19255 15.1999 4.96107L14.5899 3.13107C14.5228 2.93245 14.395 2.75993 14.2245 2.63791C14.0541 2.51589 13.8495 2.45053 13.6399 2.45107H9.6399C9.42183 2.43968 9.20603 2.49999 9.02546 2.62278C8.84489 2.74557 8.70948 2.92409 8.6399 3.13107L8.0799 4.96107C8.0019 5.19255 7.84187 5.38748 7.63001 5.50907C7.41815 5.63066 7.16911 5.6705 6.9299 5.62107L4.9999 5.24107C4.80445 5.21345 4.6052 5.24429 4.42724 5.32971C4.24929 5.41512 4.1006 5.5513 3.9999 5.72107L1.9999 9.18107C1.89106 9.36172 1.84212 9.57215 1.86008 9.78229C1.87804 9.99243 1.96198 10.1915 2.0999 10.3511L3.3699 11.7911C3.53022 11.9736 3.61863 12.2082 3.61863 12.4511C3.61863 12.694 3.53022 12.9286 3.3699 13.1111L2.0999 14.5511C1.96198 14.7106 1.87804 14.9097 1.86008 15.1198C1.84212 15.33 1.89106 15.5404 1.9999 15.7211L3.9999 19.1811C4.10499 19.3635 4.26502 19.5082 4.45715 19.5944C4.64928 19.6806 4.86372 19.7039 5.0699 19.6611L6.9499 19.2811C7.18911 19.2316 7.43815 19.2715 7.65001 19.3931C7.86187 19.5147 8.0219 19.7096 8.0999 19.9411L8.7099 21.7711C8.77948 21.978 8.91489 22.1566 9.09546 22.2794C9.27603 22.4021 9.49183 22.4624 9.7099 22.4511H13.7099C13.9195 22.4516 14.1241 22.3862 14.2945 22.2642C14.465 22.1422 14.5928 21.9697 14.6599 21.7711L15.2699 19.9411C15.3479 19.7096 15.5079 19.5147 15.7198 19.3931C15.9316 19.2715 16.1807 19.2316 16.4199 19.2811L18.2999 19.6611C18.5061 19.7039 18.7205 19.6806 18.9126 19.5944C19.1048 19.5082 19.2648 19.3635 19.3699 19.1811L21.3699 15.7211C21.4761 15.5384 21.5216 15.3268 21.5001 15.1166C21.4785 14.9064 21.3909 14.7084 21.2499 14.5511L19.8999 13.1111ZM18.4099 14.4511L19.2099 15.3511L17.9299 17.5711L16.7499 17.3311C16.0297 17.1838 15.2805 17.3062 14.6445 17.6749C14.0085 18.0435 13.53 18.6329 13.2999 19.3311L12.9199 20.4511H10.3599L9.9999 19.3111C9.76975 18.6129 9.29128 18.0236 8.6553 17.6549C8.01932 17.2862 7.27012 17.1638 6.5499 17.3111L5.3699 17.5511L4.0699 15.3411L4.8699 14.4411C5.36185 13.891 5.63383 13.179 5.63383 12.4411C5.63383 11.7031 5.36185 10.9911 4.8699 10.4411L4.0699 9.54107L5.3499 7.34107L6.5299 7.58107C7.25012 7.72829 7.99932 7.60595 8.6353 7.23727C9.27128 6.86858 9.74975 6.27923 9.9799 5.58107L10.3599 4.45107H12.9199L13.2999 5.59107C13.53 6.28923 14.0085 6.87858 14.6445 7.24727C15.2805 7.61595 16.0297 7.73829 16.7499 7.59107L17.9299 7.35107L19.2099 9.57107L18.4099 10.4711C17.9235 11.0198 17.6549 11.7277 17.6549 12.4611C17.6549 13.1944 17.9235 13.9023 18.4099 14.4511ZM11.6399 8.45107C10.8488 8.45107 10.0754 8.68566 9.41761 9.12519C8.75982 9.56471 8.24713 10.1894 7.94438 10.9203C7.64163 11.6512 7.56241 12.4555 7.71675 13.2314C7.8711 14.0074 8.25206 14.7201 8.81147 15.2795C9.37088 15.8389 10.0836 16.2199 10.8595 16.3742C11.6355 16.5285 12.4397 16.4493 13.1706 16.1466C13.9015 15.8438 14.5262 15.3311 14.9658 14.6733C15.4053 14.0156 15.6399 13.2422 15.6399 12.4511C15.6399 11.3902 15.2185 10.3728 14.4683 9.62264C13.7182 8.87249 12.7008 8.45107 11.6399 8.45107ZM11.6399 14.4511C11.2443 14.4511 10.8577 14.3338 10.5288 14.114C10.1999 13.8942 9.94351 13.5819 9.79214 13.2164C9.64076 12.851 9.60116 12.4488 9.67833 12.0609C9.7555 11.6729 9.94598 11.3166 10.2257 11.0369C10.5054 10.7571 10.8618 10.5667 11.2497 10.4895C11.6377 10.4123 12.0398 10.4519 12.4053 10.6033C12.7707 10.7547 13.0831 11.011 13.3028 11.3399C13.5226 11.6688 13.6399 12.0555 13.6399 12.4511C13.6399 12.9815 13.4292 13.4902 13.0541 13.8653C12.679 14.2404 12.1703 14.4511 11.6399 14.4511Z" fill="#3357B4"/>
<path fill-rule="evenodd" clip-rule="evenodd" d="M18.4099 14.4511L19.2099 15.3511L17.9299 17.5711L16.7499 17.3311C16.0297 17.1838 15.2805 17.3062 14.6445 17.6749C14.0085 18.0435 13.53 18.6329 13.2999 19.3311L12.9199 20.4511H10.3599L9.9999 19.3111C9.76975 18.6129 9.29128 18.0236 8.6553 17.6549C8.01932 17.2862 7.27012 17.1638 6.5499 17.3111L5.3699 17.5511L4.0699 15.3411L4.8699 14.4411C5.36185 13.891 5.63383 13.179 5.63383 12.4411C5.63383 11.7031 5.36185 10.9911 4.8699 10.4411L4.0699 9.54107L5.3499 7.34107L6.5299 7.58107C7.25012 7.72829 7.99932 7.60595 8.6353 7.23727C9.27128 6.86858 9.74975 6.27923 9.9799 5.58107L10.3599 4.45107H12.9199L13.2999 5.59107C13.53 6.28923 14.0085 6.87858 14.6445 7.24727C15.2805 7.61595 16.0297 7.73829 16.7499 7.59107L17.9299 7.35107L19.2099 9.57107L18.4099 10.4711C17.9235 11.0198 17.6549 11.7277 17.6549 12.4611C17.6549 13.1944 17.9235 13.9023 18.4099 14.4511ZM9.41761 9.12519C10.0754 8.68566 10.8488 8.45107 11.6399 8.45107C12.7008 8.45107 13.7182 8.87249 14.4683 9.62264C15.2185 10.3728 15.6399 11.3902 15.6399 12.4511C15.6399 13.2422 15.4053 14.0156 14.9658 14.6733C14.5262 15.3311 13.9015 15.8438 13.1706 16.1466C12.4397 16.4493 11.6355 16.5285 10.8595 16.3742C10.0836 16.2199 9.37088 15.8389 8.81147 15.2795C8.25206 14.7201 7.8711 14.0074 7.71675 13.2314C7.56241 12.4555 7.64163 11.6512 7.94438 10.9203C8.24713 10.1894 8.75982 9.56471 9.41761 9.12519Z" fill="#3357B4"/>
</svg>
